<?xml version="1.0" standalone="no"?>
<!DOCTYPE svg PUBLIC "-//W3C//DTD SVG 20010904//EN"
 "http://www.w3.org/TR/2001/REC-SVG-20010904/DTD/svg10.dtd">
<svg version="1.0" xmlns="http://www.w3.org/2000/svg"
 width="320.000000pt" height="320.000000pt" viewBox="0 0 320.000000 320.000000"
 preserveAspectRatio="xMidYMid meet">
<metadata>
Created by potrace 1.14, written by Peter Selinger 2001-2017
</metadata>
<g transform="translate(0.000000,320.000000) scale(0.100000,-0.100000)"
fill="#000000" stroke="none">
<path d="M0 2825 c0 -206 1 -376 3 -376 1 -1 108 -5 237 -10 351 -13 396 -17
397 -41 2 -16 -1 -17 -13 -7 -11 9 -18 9 -26 1 -8 -8 0 -17 33 -32 47 -21 81
-41 89 -52 3 -3 18 -10 33 -13 15 -4 30 -11 33 -16 3 -5 21 -9 40 -9 l35 0
-17 -29 c-18 -31 -26 -32 -90 -11 -19 7 -34 16 -34 21 0 5 -9 9 -19 9 -11 0
-37 10 -58 22 -44 26 -55 30 -108 33 -22 2 -48 6 -58 10 -10 4 -53 3 -96 -2
-42 -6 -97 -7 -122 -3 -90 16 -164 32 -179 40 -8 4 -30 10 -47 13 l-33 7 0
-84 0 -84 98 5 c116 7 215 -8 281 -42 26 -13 65 -27 87 -31 47 -8 95 -26 192
-70 41 -19 80 -34 87 -34 7 0 32 -16 55 -35 23 -19 59 -39 80 -45 37 -10 39
-13 50 -68 7 -31 20 -72 31 -90 11 -19 17 -37 14 -42 -2 -4 5 -20 17 -35 16
-21 23 -49 30 -128 4 -56 13 -124 19 -150 6 -27 15 -74 19 -105 13 -89 40
-192 65 -247 23 -50 42 -118 28 -100 -5 6 -73 11 -158 13 -163 3 -328 10 -391
18 -21 2 -70 6 -109 8 -63 4 -174 16 -293 32 -23 3 -40 9 -37 14 2 4 -1 8 -8
7 -35 -1 -49 4 -44 17 4 10 -7 15 -40 20 -25 3 -52 6 -59 6 -12 0 -14 -95 -14
-565 l0 -565 1600 0 1600 0 0 1009 0 1009 -37 15 c-29 11 -110 16 -339 22
-282 6 -303 6 -312 -11 -9 -16 -19 -16 -108 -8 l-99 9 -2 108 c-1 59 -6 123
-12 141 -9 33 -8 34 23 40 17 3 154 6 305 5 253 -1 275 1 292 18 15 15 20 57
33 278 17 267 32 462 42 528 l6 37 -1496 0 -1496 0 0 -375z m2044 303 c7 -8 9
-23 5 -38 l-7 -25 -1 28 c-1 18 -6 27 -17 27 -12 0 -15 -6 -9 -22 4 -13 8 -34
10 -48 2 -14 7 -42 11 -62 5 -27 2 -41 -10 -53 -10 -10 -16 -33 -16 -61 0 -39
-2 -44 -22 -43 -17 1 -19 2 -5 6 32 8 21 55 -19 81 -19 12 -38 20 -43 18 -9
-6 -6 112 3 122 4 3 21 11 39 17 19 6 33 18 36 30 3 17 18 34 29 35 2 0 9 -6
16 -12z m-284 -108 c0 -13 -7 -20 -20 -20 -13 0 -20 7 -20 20 0 13 7 20 20 20
13 0 20 -7 20 -20z m0 -48 c0 -13 -29 -48 -30 -35 0 6 -3 18 -6 27 -4 12 0 16
15 16 12 0 21 -4 21 -8z m-93 -18 c-3 -3 -12 -4 -19 -1 -8 3 -5 6 6 6 11 1 17
-2 13 -5z m95 -77 c57 -19 130 -43 163 -53 33 -10 66 -24 74 -32 7 -7 36 -28
65 -46 61 -40 86 -66 119 -126 41 -76 70 -260 40 -260 -7 0 -13 -4 -13 -10 0
-5 5 -10 12 -10 6 0 8 -3 5 -6 -4 -4 -13 -2 -21 5 -11 9 -14 8 -12 -5 2 -28
-42 -23 -82 9 -169 136 -345 214 -548 241 -56 8 -84 15 -64 16 70 5 157 -1
234 -15 125 -24 116 -30 116 84 0 72 -4 103 -14 113 -20 21 -234 52 -301 44
-55 -6 -233 -66 -270 -90 -15 -10 -24 -33 -33 -85 -6 -39 -12 -82 -12 -95 0
-18 -8 -27 -29 -34 -45 -16 -137 -78 -193 -130 l-51 -47 7 45 c11 80 72 187
147 261 38 37 83 79 101 92 44 33 285 158 323 168 51 14 130 2 237 -34z m-222
-92 c0 -12 -53 -85 -62 -85 -9 0 2 25 30 68 13 20 32 30 32 17z m40 -6 c0 -8
4 -8 13 -1 6 5 27 8 46 6 37 -4 55 -14 27 -14 -12 0 -16 -5 -12 -15 4 -10 -1
-15 -16 -15 -48 0 -3 -14 65 -20 l72 -7 -61 -2 c-69 -1 -201 -36 -284 -75 -63
-30 -100 -33 -100 -11 0 21 41 75 56 75 7 0 21 16 33 35 18 32 51 52 36 23 -4
-7 0 -5 8 5 29 35 38 17 13 -25 -28 -48 -46 -59 -47 -31 0 15 -2 14 -11 -5 -6
-13 -17 -21 -24 -18 -15 6 -28 -10 -19 -23 3 -6 24 -4 53 5 26 9 72 22 102 30
43 12 59 22 73 45 10 19 12 29 5 27 -6 -2 -16 -13 -22 -24 -6 -10 -12 -21 -14
-24 -2 -2 -7 2 -12 10 -8 12 -10 12 -16 -3 -6 -17 -24 -24 -24 -9 0 4 9 22 20
40 19 32 40 43 40 21z m-1320 -148 c0 -42 -4 -71 -11 -73 -24 -8 -79 5 -79 18
0 8 5 14 10 14 15 0 50 61 50 88 0 13 6 22 15 22 12 0 15 -14 15 -69z m2358
-47 c13 -4 21 -12 18 -19 -3 -8 2 -16 11 -19 12 -5 13 -9 4 -20 -14 -16 1 -31
23 -23 19 8 129 -17 133 -30 3 -7 -4 -9 -17 -6 -12 3 -25 1 -29 -5 -5 -8 -87
-14 -252 -18 l-244 -7 -20 75 -21 74 30 2 c17 2 32 5 35 8 8 8 299 -3 329 -12z
m145 -1 c-7 -2 -21 -2 -30 0 -10 3 -4 5 12 5 17 0 24 -2 18 -5z m-2020 -180
c-7 -2 -19 -2 -25 0 -7 3 -2 5 12 5 14 0 19 -2 13 -5z m77 -2 c0 -6 -4 -13
-10 -16 -5 -3 -10 1 -10 9 0 9 5 16 10 16 6 0 10 -4 10 -9z m1393 -107 c3 -3
3 -12 0 -20 -4 -11 -9 -12 -19 -3 -8 6 -14 15 -14 20 0 10 24 12 33 3z m-508
-113 c-3 -12 0 -21 10 -25 9 -3 13 -11 9 -18 -5 -7 -1 -9 14 -6 13 4 22 0 26
-11 3 -9 12 -26 21 -37 15 -20 14 -23 -15 -53 -18 -17 -40 -31 -50 -31 -25 0
-70 -63 -70 -99 0 -37 -16 -48 -40 -26 -10 9 -20 12 -24 7 -3 -4 -1 -46 3 -93
9 -86 9 -93 -9 -169 -10 -41 -13 -92 -9 -163 1 -16 -10 -42 -25 -62 l-26 -34
22 -12 c29 -16 9 -23 -25 -10 -15 6 -27 17 -27 25 0 9 -10 20 -21 27 -19 10
-25 7 -45 -17 -51 -63 -79 -84 -104 -82 -24 3 -28 -2 -59 -72 -11 -25 -11
-146 1 -165 3 -5 2 -19 -3 -30 -7 -19 -8 -18 -8 4 -1 16 -5 21 -16 17 -13 -4
-14 -2 -5 14 11 21 5 44 -10 35 -5 -3 -11 9 -15 26 -4 17 -14 39 -24 49 -69
76 -91 118 -91 177 0 21 -11 79 -25 128 -23 79 -26 109 -25 242 0 109 5 162
15 187 17 39 32 53 46 39 7 -7 21 0 40 18 17 15 40 31 52 35 12 4 39 22 60 40
20 19 44 34 53 34 8 0 29 7 45 16 17 8 44 17 62 19 18 2 39 12 47 23 18 22 46
35 80 37 14 1 38 6 54 10 19 5 31 4 36 -6 7 -10 11 -10 24 0 9 8 16 10 16 5 0
-5 5 -1 11 9 13 23 32 22 24 -2z m675 -311 c8 -5 11 -12 7 -16 -4 -4 -13 -2
-19 4 -9 9 -16 8 -30 -5 -22 -19 -36 -10 -18 12 14 17 38 19 60 5z m-558 -111
c16 -10 -22 -12 -46 -3 -21 8 -20 41 2 53 14 8 18 5 24 -16 4 -15 13 -30 20
-34z m13 52 c3 -5 1 -12 -5 -16 -5 -3 -10 1 -10 9 0 18 6 21 15 7z m344 -58
l0 -38 -15 45 c-18 57 -17 65 1 46 8 -8 15 -31 14 -53z m-25 5 c3 -16 2 -28
-3 -28 -11 0 -21 25 -21 53 0 27 15 11 24 -25z m-349 -28 c3 -5 21 -10 38 -11
27 0 29 -2 12 -9 -23 -10 -62 -3 -90 16 -19 13 -18 14 7 14 15 0 30 -4 33 -10z
m282 -27 c3 -10 13 -27 22 -37 12 -14 13 -20 4 -23 -7 -3 -13 -16 -13 -29 0
-14 -7 -36 -16 -50 -9 -13 -14 -27 -11 -31 4 -3 -6 -21 -21 -38 -73 -88 -72
-85 -70 -170 0 -44 5 -85 9 -90 4 -6 4 -16 0 -23 -5 -9 -14 2 -25 33 -10 25
-34 64 -53 88 -20 23 -42 56 -49 72 -7 17 -26 43 -43 59 -38 37 -39 46 -2 46
25 0 28 3 23 25 -2 14 -11 25 -18 25 -8 0 -14 7 -14 16 0 11 6 15 18 12 11 -3
30 1 43 9 13 8 16 12 7 9 -18 -5 -30 16 -22 39 4 8 16 17 28 20 93 19 129 24
135 20 5 -2 16 4 26 15 22 25 34 25 42 3z m73 -14 c0 -5 -4 -9 -10 -9 -5 0
-10 7 -10 16 0 8 5 12 10 9 6 -3 10 -10 10 -16z m109 -69 c0 -10 -3 -8 -9 5
-12 27 -12 43 0 25 5 -8 9 -22 9 -30z m78 -78 c-10 -10 -17 -24 -17 -31 0 -7
-5 -9 -10 -6 -6 4 -17 2 -25 -5 -8 -7 -15 -7 -19 -1 -3 5 11 20 31 32 21 13
40 27 42 32 1 4 6 6 9 3 3 -3 -2 -14 -11 -24z m7 -73 c-7 -11 -34 -12 -34 -1
0 14 11 21 26 15 8 -3 11 -9 8 -14z m-742 -257 c-7 -2 -12 -10 -12 -18 0 -8
-8 -14 -17 -15 -15 0 -15 -2 2 -9 11 -4 32 -5 47 -3 16 3 34 0 42 -6 10 -8 16
-9 21 -1 10 16 23 12 30 -10 7 -23 -12 -53 -29 -47 -6 2 -20 -4 -30 -14 -11
-11 -14 -19 -8 -19 7 0 12 -7 12 -16 0 -8 -4 -13 -9 -10 -9 6 -37 -21 -29 -29
2 -3 19 0 38 5 41 12 50 6 24 -18 -15 -14 -36 -17 -109 -16 -49 1 -109 6 -132
12 -49 11 -60 6 -37 -19 9 -10 14 -27 11 -39 -3 -11 -1 -18 5 -14 5 3 15 -2
22 -12 8 -11 21 -15 35 -11 11 3 21 1 21 -4 0 -9 -39 -33 -55 -34 -5 0 -10 -4
-10 -10 0 -19 -16 -35 -27 -29 -6 4 -16 1 -22 -7 -6 -8 -22 -23 -35 -34 l-24
-20 12 22 c6 13 20 27 31 33 28 15 25 28 -5 25 -16 -2 -25 2 -25 11 0 8 -3 13
-7 13 -20 -3 -24 2 -13 16 9 11 9 19 2 28 -7 8 -7 18 -2 27 6 9 5 17 -3 22
-15 9 -13 151 3 156 5 2 10 10 10 18 0 23 28 16 46 -11 9 -14 22 -24 28 -22 6
2 19 0 29 -5 12 -6 17 -5 17 7 0 8 -4 15 -9 15 -5 0 -13 9 -16 20 -8 25 19 54
42 46 13 -5 14 -4 3 9 -7 9 -10 18 -6 22 3 3 6 1 6 -6 0 -8 6 -9 18 -3 9 5 28
8 42 7 14 -1 34 1 45 5 11 4 24 5 30 2 5 -3 4 -7 -3 -10z m145 -79 c-3 -10 -5
-4 -5 12 0 17 2 24 5 18 2 -7 2 -21 0 -30z m143 17 c12 -8 11 -10 -7 -10 -13
0 -23 5 -23 10 0 13 11 13 30 0z m-168 -132 c-7 -7 -12 -8 -12 -2 0 14 12 26
19 19 2 -3 -1 -11 -7 -17z m-213 -186 c-5 -2 -9 -11 -9 -20 -1 -15 -2 -15 -11
1 -10 18 -12 18 -32 0 -15 -12 -18 -13 -9 -2 6 9 9 19 5 22 -3 4 0 13 7 21 11
14 15 13 35 -2 13 -9 19 -18 14 -20z m89 -17 c-1 -12 -9 -21 -18 -21 -11 0
-15 7 -12 21 2 12 10 22 18 22 8 0 13 -9 12 -22z m-65 -16 c5 -3 2 -9 -5 -12
-9 -3 -14 3 -15 15 -1 11 1 16 5 12 4 -5 11 -12 15 -15z m-143 -19 c0 -5 -5
-10 -11 -10 -5 0 -7 5 -4 10 3 6 8 10 11 10 2 0 4 -4 4 -10z m250 2 c0 -14
-11 -21 -26 -15 -8 3 -11 9 -8 14 7 11 34 12 34 1z m-166 -28 c9 -3 14 -10 11
-15 -7 -10 -35 0 -35 12 0 11 3 11 24 3z m6 -155 c37 -16 80 -20 101 -8 13 6
19 6 19 -1 0 -5 16 -10 35 -10 33 0 48 -14 23 -22 -6 -2 -9 -12 -5 -21 5 -13
19 -17 68 -17 55 0 61 -2 56 -19 -4 -16 3 -20 41 -25 27 -4 50 -2 58 5 7 6 17
8 23 5 5 -3 11 -1 13 5 2 7 12 6 28 -3 49 -26 49 -26 38 -64 -8 -31 -7 -38 13
-55 12 -10 17 -19 12 -19 -6 0 -13 -6 -16 -14 -5 -11 2 -11 36 2 23 9 45 22
50 28 13 23 115 45 172 39 34 -3 56 -1 60 5 4 6 17 16 28 21 38 17 72 39 62
39 -5 0 1 7 13 16 12 8 22 24 22 35 0 10 4 19 9 19 5 0 11 9 14 21 4 13 10 18
17 14 9 -6 9 -2 1 14 -9 17 -9 21 3 21 7 0 17 -7 20 -16 8 -21 8 -89 -1 -98
-4 -3 -8 -13 -9 -21 -4 -26 -46 -69 -121 -123 -126 -92 -340 -143 -543 -129
-74 5 -96 12 -175 51 -162 80 -263 199 -273 321 l-5 65 44 -25 c24 -14 55 -30
69 -36z m-1220 -228 c0 -5 -7 -11 -15 -15 -15 -5 -20 5 -8 17 9 10 23 9 23 -2z"/>
<path d="M2140 2341 c0 -6 4 -13 10 -16 6 -3 7 1 4 9 -7 18 -14 21 -14 7z"/>
<path d="M1173 1942 c-12 -2 -27 -10 -33 -18 -7 -8 -18 -14 -25 -14 -15 0 -34
-37 -36 -70 -5 -79 8 -102 29 -55 12 26 27 31 50 17 10 -7 9 -15 -4 -41 -20
-40 -10 -54 43 -58 57 -4 63 -6 63 -16 0 -6 5 -6 13 0 6 5 28 6 47 3 l35 -6
-35 -19 c-57 -31 -10 -31 60 1 54 24 58 28 43 40 -11 8 -13 13 -5 14 6 0 12 6
12 14 0 8 10 22 21 30 21 14 21 16 5 40 -10 16 -14 35 -10 51 5 20 -1 32 -29
60 l-34 34 -94 -2 c-52 -1 -104 -3 -116 -5z m127 -168 c0 -8 -5 -12 -10 -9 -6
4 -8 11 -5 16 9 14 15 11 15 -7z m-7 -53 c19 -10 17 -11 -17 -7 -47 6 -61 24
-38 49 16 18 17 18 25 -6 4 -13 18 -30 30 -36z m100 29 c-3 -11 -12 -20 -19
-20 -17 0 -17 5 -3 31 13 24 29 16 22 -11z"/>
<path d="M1317 1366 c-10 -22 -16 -44 -14 -50 6 -17 39 53 34 72 -2 11 -9 4
-20 -22z"/>
<path d="M1525 1080 c3 -5 18 -10 32 -10 32 0 28 5 -10 14 -19 4 -26 3 -22 -4z"/>
<path d="M1420 839 c0 -5 5 -7 10 -4 6 3 10 8 10 11 0 2 -4 4 -10 4 -5 0 -10
-5 -10 -11z"/>
<path d="M3170 3188 c1 -7 7 -26 15 -43 l13 -30 1 43 c1 31 -3 42 -14 42 -8 0
-15 -6 -15 -12z"/>
<path d="M935 1700 c4 -6 11 -8 16 -5 14 9 11 15 -7 15 -8 0 -12 -5 -9 -10z"/>
</g>
</svg>
